<svg width="30" height="31" viewBox="0 0 30 31" fill="none" xmlns="http://www.w3.org/2000/svg">
<g clip-path="url(#clip0_161_54)">
<path d="M15 24.0029C13.7432 24.0026 12.5038 23.6936 11.3803 23.1006C10.2567 22.5076 9.28016 21.6468 8.52811 20.5868C7.77606 19.5268 7.2693 18.2967 7.04811 16.9944C6.82692 15.6921 6.8974 14.3534 7.25394 13.0847C7.56842 11.9655 8.09947 10.9269 8.81371 10.0341C8.87103 9.95346 8.9434 9.88595 9.02637 9.83574C9.10935 9.78553 9.20119 9.75369 9.29626 9.74215C9.39134 9.73061 9.48766 9.73963 9.57931 9.76865C9.67096 9.79767 9.75602 9.84607 9.82928 9.91091C9.90253 9.97574 9.96244 10.0556 10.0053 10.1457C10.0482 10.2358 10.0732 10.3341 10.0787 10.4347C10.0843 10.5352 10.0702 10.6359 10.0375 10.7306C10.0047 10.8253 9.95398 10.9119 9.88832 10.9852C9.7014 11.2202 9.52879 11.4674 9.37152 11.7253C9.19445 12.016 9.03778 12.3198 8.90277 12.6345C8.78291 12.9149 8.68074 13.2034 8.59691 13.498C8.51463 13.7922 8.45043 14.0918 8.40473 14.3947C8.35128 14.7584 8.32425 15.1258 8.32387 15.4938C8.32609 16.9786 8.77565 18.4244 9.60788 19.6232C10.4401 20.8221 11.6121 21.7121 12.9553 22.1654C14.2985 22.6187 15.7437 22.6119 17.083 22.1459C18.4223 21.6799 19.5866 20.7788 20.4086 19.5721C21.2305 18.3655 21.6677 16.9155 21.6573 15.4307C21.6468 13.946 21.1892 12.503 20.3504 11.3093C19.5115 10.1156 18.3346 9.23277 16.9889 8.78774C15.6432 8.34271 14.198 8.35844 12.8614 8.83266C12.7712 8.88017 12.6724 8.90672 12.5717 8.91051C12.471 8.91431 12.3706 8.89525 12.2775 8.85465C12.1844 8.81405 12.1006 8.75284 12.0319 8.67518C11.9632 8.59751 11.9112 8.50521 11.8794 8.40453C11.8476 8.30385 11.8367 8.19714 11.8475 8.09164C11.8583 7.98614 11.8905 7.88432 11.9419 7.79307C11.9934 7.70183 12.0629 7.62329 12.1457 7.5628C12.2285 7.5023 12.3227 7.46125 12.4219 7.44244C13.532 7.04862 14.7102 6.91367 15.8748 7.04694C17.0393 7.18021 18.1625 7.57851 19.1662 8.21423C20.17 8.84995 21.0304 9.70788 21.6877 10.7285C22.3451 11.7492 22.7837 12.9081 22.9732 14.125C23.1626 15.3418 23.0983 16.5875 22.7848 17.7756C22.4713 18.9637 21.9161 20.0659 21.1576 21.0056C20.3991 21.9453 19.4555 22.7001 18.3922 23.2176C17.329 23.7352 16.1715 24.0031 15 24.0029V24.0029Z" fill="white"/>
<path d="M15 7.73724V23.2627C16.9559 23.2627 18.8316 22.4449 20.2146 20.9891C21.5976 19.5333 22.3746 17.5588 22.3746 15.5C22.3746 13.4412 21.5976 11.4667 20.2146 10.0109C18.8316 8.5551 16.9559 7.73724 15 7.73724V7.73724Z" fill="white"/>
<path d="M15 5.24179C14.8135 5.24179 14.6347 5.16381 14.5028 5.02501C14.3709 4.88621 14.2968 4.69795 14.2968 4.50166V1.69286C14.2968 1.49656 14.3709 1.30831 14.5028 1.16951C14.6347 1.03071 14.8135 0.952728 15 0.952728C15.1865 0.952728 15.3653 1.03071 15.4972 1.16951C15.629 1.30831 15.7031 1.49656 15.7031 1.69286V4.50166C15.7031 4.69795 15.629 4.88621 15.4972 5.02501C15.3653 5.16381 15.1865 5.24179 15 5.24179V5.24179ZM15 30.0461C14.8135 30.0461 14.6347 29.9681 14.5028 29.8293C14.3709 29.6905 14.2968 29.5022 14.2968 29.3059V26.4984C14.2968 26.3021 14.3709 26.1138 14.5028 25.975C14.6347 25.8362 14.8135 25.7582 15 25.7582C15.1865 25.7582 15.3653 25.8362 15.4972 25.975C15.629 26.1138 15.7031 26.3021 15.7031 26.4984V29.3072C15.7028 29.5032 15.6286 29.6912 15.4967 29.8297C15.3649 29.9682 15.1863 30.0461 15 30.0461ZM28.1168 16.2401H25.4484C25.2619 16.2401 25.0831 16.1622 24.9512 16.0234C24.8194 15.8846 24.7453 15.6963 24.7453 15.5C24.7453 15.3037 24.8194 15.1155 24.9512 14.9767C25.0831 14.8379 25.2619 14.7599 25.4484 14.7599H28.1168C28.3032 14.7599 28.4821 14.8379 28.614 14.9767C28.7458 15.1155 28.8199 15.3037 28.8199 15.5C28.8199 15.6963 28.7458 15.8846 28.614 16.0234C28.4821 16.1622 28.3032 16.2401 28.1168 16.2401ZM4.55154 16.2401H1.88318C1.6967 16.2401 1.51786 16.1622 1.38599 16.0234C1.25413 15.8846 1.18005 15.6963 1.18005 15.5C1.18005 15.3037 1.25413 15.1155 1.38599 14.9767C1.51786 14.8379 1.6967 14.7599 1.88318 14.7599H4.55154C4.73802 14.7599 4.91686 14.8379 5.04872 14.9767C5.18058 15.1155 5.25466 15.3037 5.25466 15.5C5.25466 15.6963 5.18058 15.8846 5.04872 16.0234C4.91686 16.1622 4.73802 16.2401 4.55154 16.2401V16.2401Z" fill="white"/>
<path d="M22.3829 8.46874C22.2441 8.46837 22.1086 8.42481 21.9933 8.34353C21.8781 8.26226 21.7882 8.14691 21.7351 8.012C21.682 7.87709 21.668 7.72865 21.6948 7.58538C21.7217 7.4421 21.7882 7.31039 21.886 7.20682L23.7727 5.2208C23.906 5.09006 24.0823 5.01889 24.2644 5.02227C24.4466 5.02565 24.6204 5.10333 24.7492 5.23894C24.878 5.37454 24.9518 5.55749 24.955 5.74923C24.9583 5.94098 24.8906 6.12655 24.7664 6.26685L22.8797 8.25287C22.7478 8.39126 22.5691 8.4689 22.3829 8.46874V8.46874Z" fill="white"/>
<path d="M5.72582 26.0025C5.58685 26.0023 5.45103 25.9589 5.33551 25.8775C5.22 25.7962 5.12997 25.6807 5.0768 25.5455C5.02364 25.4103 5.00971 25.2616 5.03679 25.1181C5.06387 24.9746 5.13074 24.8428 5.22895 24.7393L7.11567 22.7533C7.18004 22.6806 7.25766 22.6223 7.34391 22.5818C7.43016 22.5414 7.52327 22.5196 7.61768 22.5178C7.71209 22.5161 7.80586 22.5344 7.89342 22.5716C7.98097 22.6088 8.0605 22.6642 8.12727 22.7345C8.19403 22.8048 8.24667 22.8885 8.28203 22.9807C8.3174 23.0728 8.33476 23.1715 8.3331 23.2709C8.33143 23.3703 8.31077 23.4683 8.27234 23.5591C8.23391 23.6499 8.1785 23.7316 8.10942 23.7993L6.2227 25.7854C6.09096 25.9242 5.91224 26.0023 5.72582 26.0025Z" fill="white"/>
<path d="M24.2743 26.0025C24.0878 26.0023 23.9091 25.9242 23.7774 25.7854L21.8907 23.7993C21.8216 23.7316 21.7662 23.6499 21.7277 23.5591C21.6893 23.4683 21.6686 23.3703 21.667 23.2709C21.6653 23.1715 21.6827 23.0728 21.718 22.9807C21.7534 22.8885 21.806 22.8048 21.8728 22.7345C21.9396 22.6642 22.0191 22.6088 22.1067 22.5716C22.1942 22.5344 22.288 22.5161 22.3824 22.5178C22.4768 22.5196 22.5699 22.5414 22.6562 22.5818C22.7424 22.6223 22.82 22.6806 22.8844 22.7533L24.7711 24.7393C24.8693 24.8428 24.9362 24.9746 24.9633 25.1181C24.9904 25.2616 24.9764 25.4103 24.9233 25.5455C24.8701 25.6807 24.7801 25.7962 24.6646 25.8775C24.5491 25.9589 24.4132 26.0023 24.2743 26.0025Z" fill="white"/>
<path d="M7.61723 8.46874C7.43098 8.4689 7.25228 8.39126 7.12036 8.25287L5.23363 6.26685C5.10943 6.12655 5.04182 5.94098 5.04503 5.74923C5.04825 5.55749 5.12204 5.37454 5.25086 5.23894C5.37969 5.10333 5.55349 5.02565 5.73565 5.02227C5.9178 5.01889 6.0941 5.09006 6.22739 5.2208L8.11411 7.20682C8.21192 7.31039 8.27843 7.4421 8.30528 7.58538C8.33213 7.72865 8.31812 7.87709 8.265 8.012C8.21188 8.14691 8.12203 8.26226 8.00677 8.34353C7.8915 8.42481 7.75597 8.46837 7.61723 8.46874V8.46874Z" fill="white"/>
</g>
<defs>
<clipPath id="clip0_161_54">
<rect width="30" height="30" fill="white" transform="translate(0 0.5)"/>
</clipPath>
</defs>
</svg>
