<svg width="32" height="32" viewBox="0 0 32 32" fill="none" xmlns="http://www.w3.org/2000/svg">
<path d="M16 28C22.6274 28 28 22.6274 28 16C28 9.37258 22.6274 4 16 4C9.37258 4 4 9.37258 4 16C4 22.6274 9.37258 28 16 28Z" fill="#102189"/>
<path d="M14.6667 19.4477V9.33331C14.6667 8.59693 15.2636 7.99998 16 7.99998C16.7364 7.99998 17.3333 8.59693 17.3333 9.33331V19.4477L20.3905 16.3905C20.9112 15.8698 21.7555 15.8698 22.2762 16.3905C22.7969 16.9112 22.7969 17.7554 22.2762 18.2761L16.9428 23.6095C16.4221 24.1302 15.5779 24.1302 15.0572 23.6095L9.72387 18.2761C9.20317 17.7554 9.20317 16.9112 9.72387 16.3905C10.2446 15.8698 11.0888 15.8698 11.6095 16.3905L14.6667 19.4477ZM16 30.6666C7.89983 30.6666 1.33334 24.1002 1.33334 16C1.33334 7.8998 7.89983 1.33331 16 1.33331C24.1002 1.33331 30.6667 7.8998 30.6667 16C30.6667 24.1002 24.1002 30.6666 16 30.6666ZM16 28C22.6274 28 28 22.6274 28 16C28 9.37256 22.6274 3.99998 16 3.99998C9.37259 3.99998 4.00001 9.37256 4.00001 16C4.00001 22.6274 9.37259 28 16 28Z" fill="white"/>
</svg>
