<svg width="30" height="31" viewBox="0 0 30 31" fill="none" xmlns="http://www.w3.org/2000/svg">
<g clip-path="url(#clip0_147_597)">
<path d="M15 5.65625C13.0067 5.65625 11.0582 6.24732 9.4009 7.35472C7.74356 8.46212 6.45182 10.0361 5.68903 11.8776C4.92624 13.7192 4.72666 15.7456 5.11553 17.7005C5.50439 19.6555 6.46424 21.4512 7.87369 22.8607C9.28315 24.2701 11.0789 25.23 13.0339 25.6189C14.9888 26.0077 17.0152 25.8081 18.8567 25.0453C20.6983 24.2826 22.2723 22.9908 23.3797 21.3335C24.4871 19.6761 25.0781 17.7276 25.0781 15.7344C25.0781 13.0615 24.0163 10.4981 22.1263 8.60806C20.2363 6.71805 17.6729 5.65625 15 5.65625V5.65625ZM22.3734 21.125C21.7051 20.7332 20.9983 20.4112 20.2641 20.1641C20.6145 18.8718 20.8066 17.5417 20.8359 16.2031H24.1172C24.0303 17.9791 23.424 19.6904 22.3734 21.125V21.125ZM5.8711 16.2031H9.16407C9.19251 17.5424 9.38375 18.8733 9.7336 20.1664C8.99938 20.4135 8.29253 20.7355 7.62422 21.1273C6.56993 19.6932 5.9603 17.9809 5.8711 16.2031V16.2031ZM7.62657 10.3438C8.29488 10.7356 9.00172 11.0576 9.73594 11.3047C9.38549 12.5969 9.19346 13.927 9.16407 15.2656H5.88282C5.96973 13.4897 6.57605 11.7783 7.62657 10.3438V10.3438ZM15.4688 12.1297C16.7787 12.0991 18.0806 11.915 19.3477 11.5812C19.681 12.7823 19.866 14.0196 19.8984 15.2656H15.4688V12.1297ZM15.4688 11.1922V6.63828C16.9453 6.91484 18.2555 8.46875 19.0617 10.6883C17.8875 10.9943 16.6818 11.1634 15.4688 11.1922V11.1922ZM14.5313 6.63828V11.1922C13.3182 11.1634 12.1125 10.9943 10.9383 10.6883C11.7445 8.46875 13.0547 6.91484 14.5313 6.63828ZM14.5313 12.1297V15.2656H10.1016C10.1341 14.0196 10.319 12.7823 10.6523 11.5812C11.9194 11.915 13.2213 12.0991 14.5313 12.1297V12.1297ZM10.1016 16.2031H14.5313V19.3391C13.2213 19.3696 11.9194 19.5537 10.6523 19.8875C10.319 18.6865 10.1341 17.4491 10.1016 16.2031V16.2031ZM14.5313 20.2766V24.8305C13.0547 24.5539 11.7445 23 10.9383 20.7805C12.1125 20.4744 13.3182 20.3054 14.5313 20.2766V20.2766ZM15.4688 24.8305V20.2766C16.6818 20.3054 17.8875 20.4744 19.0617 20.7805C18.2555 23 16.9453 24.5539 15.4688 24.8305ZM15.4688 19.3391V16.2031H19.8984C19.866 17.4491 19.681 18.6865 19.3477 19.8875C18.0806 19.5537 16.7787 19.3696 15.4688 19.3391V19.3391ZM20.8359 15.2656C20.8075 13.9263 20.6163 12.5955 20.2664 11.3023C21.0006 11.0552 21.7075 10.7332 22.3758 10.3414C23.4343 11.7742 24.048 13.4867 24.1406 15.2656H20.8359ZM21.7734 9.60547C21.2034 9.92953 20.6038 10.1987 19.9828 10.4094C19.5824 9.19569 18.9343 8.07836 18.0797 7.12813C19.4967 7.63738 20.7662 8.48829 21.7758 9.60547H21.7734ZM11.918 7.13047C11.0633 8.0807 10.4153 9.19803 10.0148 10.4117C9.39387 10.2011 8.7943 9.93188 8.22422 9.60781C9.23311 8.49095 10.5018 7.64006 11.918 7.13047V7.13047ZM8.22422 21.8633C8.7943 21.5392 9.39387 21.27 10.0148 21.0594C10.4153 22.2731 11.0633 23.3904 11.918 24.3406C10.5018 23.831 9.23311 22.9801 8.22422 21.8633V21.8633ZM18.082 24.3383C18.9367 23.3881 19.5847 22.2707 19.9852 21.057C20.6061 21.2677 21.2057 21.5369 21.7758 21.8609C20.7669 22.9778 19.4982 23.8287 18.082 24.3383Z" fill="white"/>
<path d="M15 0.5C12.3802 0.500444 9.80619 1.18702 7.5342 2.49138C5.2622 3.79575 3.37145 5.67242 2.05012 7.93459C0.728803 10.1968 0.0229984 12.7656 0.00296215 15.3853C-0.0170741 18.005 0.649357 20.5843 1.93592 22.8664L0.0163914 29.8977C-0.00448206 29.9679 -0.00861736 30.042 0.00431712 30.114C0.0172516 30.1861 0.046896 30.2542 0.0908734 30.3127C0.134851 30.3713 0.191938 30.4187 0.257557 30.4513C0.323176 30.4838 0.395502 30.5005 0.468735 30.5C0.509161 30.5003 0.549421 30.4948 0.588266 30.4836L7.71092 28.6086C9.71286 29.7221 11.9432 30.3624 14.231 30.4802C16.5188 30.598 18.8031 30.1902 20.9088 29.2882C23.0146 28.3861 24.8857 27.0138 26.3787 25.2764C27.8718 23.539 28.9471 21.4827 29.5221 19.2652C30.0971 17.0478 30.1566 14.7281 29.696 12.4841C29.2354 10.2401 28.267 8.13136 26.865 6.3197C25.463 4.50805 23.6646 3.04158 21.6079 2.03277C19.5512 1.02397 17.2908 0.499641 15 0.5V0.5ZM15 29.5625C12.5458 29.5583 10.1355 28.9119 8.00858 27.6875C7.93714 27.647 7.85632 27.626 7.7742 27.6266C7.73395 27.6266 7.69384 27.6313 7.65467 27.6406L1.13436 29.3703L2.88983 22.925C2.90615 22.8651 2.91041 22.8026 2.90237 22.741C2.89432 22.6794 2.87412 22.6201 2.84295 22.5664C1.2865 19.8884 0.657739 16.7715 1.0543 13.6996C1.45086 10.6277 2.85055 7.7726 5.03605 5.57769C7.22155 3.38278 10.0706 1.97084 13.1408 1.56109C16.211 1.15134 19.3306 1.76671 22.0152 3.31164C24.6998 4.85658 26.7993 7.24465 27.9875 10.1051C29.1758 12.9655 29.3865 16.1382 28.5868 19.1306C27.7871 22.123 26.0218 24.7677 23.5651 26.654C21.1083 28.5403 18.0974 29.5627 15 29.5625V29.5625Z" fill="white"/>
</g>
<defs>
<clipPath id="clip0_147_597">
<rect width="30" height="30" fill="white" transform="translate(0 0.5)"/>
</clipPath>
</defs>
</svg>
