<svg width="30" height="30" viewBox="0 0 30 30" fill="none" xmlns="http://www.w3.org/2000/svg">
<path d="M24.375 30H5.625C4.13316 30 2.70242 29.4074 1.64752 28.3525C0.592632 27.2976 0 25.8668 0 24.375L0 5.625C0 4.13316 0.592632 2.70242 1.64752 1.64752C2.70242 0.592632 4.13316 0 5.625 0L24.375 0C25.8668 0 27.2976 0.592632 28.3525 1.64752C29.4074 2.70242 30 4.13316 30 5.625V24.375C30 25.8668 29.4074 27.2976 28.3525 28.3525C27.2976 29.4074 25.8668 30 24.375 30ZM26.25 5.625C26.25 5.12772 26.0525 4.65081 25.7008 4.29917C25.3492 3.94754 24.8723 3.75 24.375 3.75H5.625C5.12772 3.75 4.65081 3.94754 4.29917 4.29917C3.94754 4.65081 3.75 5.12772 3.75 5.625V24.375C3.75 25.4119 4.58812 26.25 5.625 26.25H24.375C25.4119 26.25 26.25 25.4119 26.25 24.375V5.625ZM7.5 18.75H22.5V22.5H7.5V18.75ZM7.5 13.125H22.5V16.875H7.5V13.125ZM7.5 7.5H22.5V11.25H7.5V7.5Z" fill="white"/>
</svg>
