<svg width="30" height="31" viewBox="0 0 30 31" fill="none" xmlns="http://www.w3.org/2000/svg">
<g clip-path="url(#clip0_126_167)">
<path d="M18.2424 5.57504L18.2434 4.10791L11.7549 4.11551L11.756 5.57504H18.2424V5.57504ZM29.476 17.0595L29.3925 17.0877L29.2798 17.1256C29.1849 17.157 29.0917 17.189 28.9969 17.2183C28.8338 17.2719 28.6652 17.3235 28.4972 17.3744L28.3758 17.4124L28.0864 17.5012C27.9189 17.5515 27.7509 17.5982 27.5839 17.6448L27.4208 17.6914C27.3336 17.7169 27.2447 17.7418 27.1563 17.7668C27.043 17.7965 26.9309 17.8253 26.8187 17.854L26.6555 17.8963L26.5363 17.9282C26.4279 17.9564 26.3189 17.9845 26.21 18.0117C26.0794 18.0442 25.9461 18.0751 25.8122 18.1065L25.7097 18.1304L25.6041 18.1554C25.4865 18.1835 25.37 18.2116 25.2524 18.2366C25.1336 18.2637 25.0139 18.2886 24.8925 18.3147L24.7505 18.345L24.5814 18.3808C24.4811 18.4008 24.3798 18.423 24.2795 18.4436C24.1581 18.467 24.0373 18.4896 23.9164 18.5124L23.7717 18.5395L23.6324 18.5655C23.5191 18.5872 23.4065 18.6089 23.2937 18.6284C23.1615 18.6517 23.026 18.6733 22.8904 18.6961L22.7777 18.714L22.6254 18.7395C22.5165 18.7585 22.4075 18.7758 22.298 18.7932C22.155 18.8154 22.0119 18.836 21.8694 18.856L21.7697 18.8696L21.594 18.8951C21.4927 18.9108 21.3897 18.9244 21.2867 18.9385C21.161 18.9552 21.0342 18.9704 20.9068 18.9856L20.7513 19.0029L20.6266 19.0187C20.5068 19.0339 20.387 19.0485 20.2672 19.0615C20.1198 19.0767 19.9762 19.0913 19.832 19.1049L19.728 19.1146L19.567 19.1308C19.4559 19.1418 19.3443 19.153 19.2321 19.1634C19.1209 19.1731 19.0115 19.1807 18.9015 19.1889L18.7134 19.2024L18.5681 19.2137C18.4403 19.2235 18.3123 19.2338 18.1844 19.2425C18.0858 19.2495 17.985 19.2534 17.8836 19.2599L17.7096 19.2696L17.5026 19.2805C17.4311 19.2854 17.3585 19.2886 17.288 19.2935V20.8929C17.2858 21.6695 16.6544 22.3025 15.8783 22.3036H14.1223C13.3451 22.3025 12.7121 21.6695 12.7116 20.8934V19.294C12.6373 19.2896 12.562 19.2858 12.4878 19.2809L12.3274 19.2713L12.1827 19.2647C12.058 19.2582 11.9344 19.2522 11.8114 19.2436C11.7073 19.236 11.6027 19.2289 11.4992 19.2202L11.3225 19.2067L11.1399 19.1926C11.0152 19.1839 10.89 19.1742 10.7654 19.1639C10.6483 19.1536 10.5334 19.1411 10.4185 19.1303L10.2949 19.1167L10.1377 19.1021C10.0017 19.089 9.86618 19.0761 9.73128 19.0615C9.62829 19.0506 9.52535 19.0371 9.42183 19.0257L9.26683 19.0073L9.0858 18.9856C8.95953 18.9693 8.83267 18.9552 8.70801 18.9385C8.59963 18.9244 8.48797 18.9081 8.37738 18.8924L8.24675 18.8729L8.06356 18.8469C7.94214 18.8306 7.82077 18.8133 7.70102 18.7944C7.59534 18.7781 7.49127 18.7607 7.38666 18.7428L7.23598 18.7184L7.11677 18.6984C6.97858 18.6762 6.83927 18.654 6.70216 18.629C6.58075 18.6068 6.46261 18.5846 6.34173 18.5618L6.2382 18.5418L6.11462 18.519C5.98183 18.4946 5.84958 18.4703 5.71841 18.4437C5.60027 18.4199 5.48429 18.3954 5.36826 18.37L5.25498 18.3456L5.09293 18.3109C4.97749 18.2871 4.86097 18.2632 4.74607 18.2367C4.62411 18.2106 4.5022 18.1808 4.3797 18.1521L4.28701 18.1299L4.15912 18.0996C4.03554 18.0708 3.91304 18.0426 3.79005 18.0123C3.69952 17.9895 3.61065 17.9668 3.52285 17.9434L3.33913 17.8952L3.22967 17.8671C3.10119 17.8345 2.97335 17.8015 2.84649 17.7673C2.75434 17.7414 2.66493 17.7159 2.57385 17.6905L2.40635 17.6438L2.30395 17.6145C2.17386 17.5777 2.04435 17.5408 1.91641 17.5018C1.79607 17.4677 1.67739 17.4292 1.55764 17.3929L1.4899 17.3712L1.38637 17.3392C1.25848 17.2991 1.13054 17.2601 1.00481 17.2194C0.866083 17.1756 0.729467 17.1289 0.592901 17.0823C0.431923 17.0287 0.267171 16.9744 0.105115 16.9181C0.0682527 16.9057 0.0346258 16.8937 -3.05176e-05 16.8813V26.743C-3.05176e-05 26.8233 0.0682527 26.8921 0.150653 26.8921H29.8499C29.929 26.8921 29.9984 26.8233 29.9984 26.7425V16.8806L29.8982 16.9164C29.7573 16.9663 29.6169 17.0129 29.476 17.0595ZM29.8488 6.83673H0.150114C0.0693801 6.83673 1.85012e-05 6.90556 1.85012e-05 6.98683V15.5404C0.166928 15.6016 0.332268 15.6623 0.501334 15.7219C0.555549 15.7409 0.609714 15.7588 0.663929 15.7773L0.775545 15.814L0.930543 15.8672C1.07579 15.9165 1.22103 15.9663 1.36848 16.0135L1.55818 16.0726L1.66931 16.1067C1.8644 16.1679 2.0568 16.2292 2.25194 16.2867C2.31699 16.3067 2.38527 16.3251 2.4514 16.3447L2.59125 16.3843L2.70993 16.4179C2.85625 16.4601 3.00311 16.5019 3.15109 16.5425C3.23506 16.5664 3.3207 16.588 3.4058 16.6102L3.53859 16.6439L3.6654 16.6775C3.79873 16.7117 3.93094 16.7475 4.06647 16.7805C4.14559 16.8005 4.22799 16.8195 4.31088 16.8396L4.4995 16.8835L4.66592 16.9225C4.77538 16.949 4.88435 16.9751 4.99435 17.0001C5.10489 17.0256 5.21655 17.0482 5.32714 17.0716L5.47566 17.1024L5.62743 17.1344C5.73042 17.1572 5.83389 17.1794 5.93904 17.2006C6.06585 17.2261 6.19379 17.2494 6.32114 17.2737L6.468 17.3013L6.5905 17.3241C6.69241 17.3441 6.79373 17.3637 6.89618 17.3816C7.03275 17.4054 7.17044 17.4276 7.30863 17.4509L7.475 17.4781L7.63328 17.504L7.87014 17.5419C8.02513 17.5675 8.18283 17.5891 8.34003 17.6108L8.50209 17.6335L8.62458 17.652C8.69939 17.6623 8.77527 17.6731 8.85056 17.6829C9.04894 17.71 9.24565 17.7328 9.44349 17.7561L9.52805 17.7658L9.66898 17.7832C9.72917 17.7913 9.78932 17.7972 9.84947 17.8048C10.0717 17.8297 10.2966 17.8498 10.5199 17.8714L10.67 17.886L10.8608 17.9039C11.0266 17.9192 11.1936 17.9316 11.361 17.944L11.5263 17.9554L11.6873 17.9679C11.7512 17.9738 11.8168 17.9787 11.8808 17.9825C12.0211 17.9917 12.162 17.9988 12.3046 18.0058L12.4737 18.0139L12.6032 18.0231C12.6395 18.0237 12.6747 18.027 12.7122 18.0286L12.7127 16.7972C12.7127 16.0205 13.3457 15.3886 14.1218 15.3865H15.8784C16.6539 15.3881 17.2859 16.0201 17.2886 16.7956V18.0286C17.2918 18.0286 17.2946 18.0286 17.2973 18.0286L17.4735 18.0182L17.6653 18.008C17.8176 17.9999 17.9683 17.9923 18.1189 17.982C18.1775 17.9782 18.2333 17.9738 18.2881 17.9689L18.4192 17.9592C18.6604 17.943 18.9021 17.9251 19.1422 17.9033L19.2728 17.892L19.417 17.8768C19.6685 17.8535 19.9118 17.8312 20.1513 17.8047L20.3031 17.7857L20.4142 17.7727C20.6619 17.7446 20.9074 17.7159 21.1503 17.6839L21.2901 17.6638L21.43 17.6438L21.5275 17.6302C21.7313 17.6021 21.934 17.5728 22.1356 17.5419C22.1952 17.5322 22.251 17.5229 22.3079 17.5137L22.4543 17.4882L22.6185 17.4622C22.7806 17.4357 22.9443 17.4091 23.1068 17.3804C23.186 17.3662 23.2629 17.3517 23.3393 17.337L23.4608 17.3132L23.5556 17.2963C23.7263 17.2644 23.8971 17.233 24.0656 17.1988C24.1393 17.1847 24.2092 17.169 24.2813 17.1538L24.4531 17.1175L24.5523 17.0964C24.7062 17.0644 24.859 17.0319 25.0108 16.9977C25.1176 16.9739 25.2238 16.9484 25.33 16.923L25.4232 16.9002L25.5181 16.879C25.6585 16.8454 25.801 16.8134 25.9403 16.7782C26.0481 16.7506 26.1538 16.7219 26.2606 16.6947L26.3847 16.6622L26.5391 16.6227C26.6454 16.5944 26.7505 16.5668 26.8546 16.5392C26.9917 16.5018 27.1278 16.4628 27.2633 16.4238L27.3218 16.407L27.4345 16.3745C27.5413 16.3447 27.6491 16.3143 27.7559 16.2828C27.8665 16.2492 27.9765 16.2156 28.0849 16.1816L28.2377 16.1338L28.3575 16.0964C28.4518 16.0677 28.5461 16.039 28.6388 16.0086C28.7662 15.9679 28.8908 15.9251 29.0165 15.8834L29.1303 15.8438L29.2599 15.801C29.3428 15.7728 29.4263 15.7447 29.5081 15.717C29.6436 15.6699 29.778 15.62 29.9124 15.5707L29.9996 15.5387L30.0002 6.98472C29.9995 6.9056 29.9307 6.83673 29.8488 6.83673ZM15.8778 21.0425C15.9564 21.0425 16.0257 20.9726 16.0257 20.8929V19.3353C15.6653 19.344 15.3271 19.3483 14.9998 19.3483C14.6795 19.3483 14.3451 19.3434 13.9733 19.3348V20.8935C13.9733 20.9742 14.041 21.0425 14.1228 21.0425H15.8778V21.0425Z" fill="white"/>
</g>
<defs>
<clipPath id="clip0_126_167">
<rect width="30" height="30" fill="white" transform="translate(0 0.5)"/>
</clipPath>
</defs>
</svg>
